<mxfile host="app.diagrams.net" modified="2020-11-30T23:37:11.706Z" agent="5.0 (X11)" etag="pIwumTqsjIewnwo_dWx1" version="13.10.4" type="github" pages="2">
  <diagram id="Gnp_EI-a4jwjJ48-SvEC" name="patient">
    <mxGraphModel dx="1614" dy="898" grid="1" gridSize="10" guides="1" tooltips="1" connect="1" arrows="1" fold="1" page="1" pageScale="1" pageWidth="2339" pageHeight="3300" math="0" shadow="0">
      <root>
        <mxCell id="0" />
        <mxCell id="1" parent="0" />
        <mxCell id="CR7Bd920Yuq2MpIPKO0S-1" value="&lt;pre&gt;chain_of(&lt;br&gt;    with_elements(load_postgres_table((&quot;public&quot;, &quot;patient&quot;), [&quot;id&quot;], [Int32])),&lt;br&gt;    flatten())&lt;br&gt;&lt;/pre&gt;" style="text;html=1;align=left;verticalAlign=middle;resizable=0;points=[];autosize=1;" vertex="1" parent="1">
          <mxGeometry x="40" y="40" width="590" height="70" as="geometry" />
        </mxCell>
        <mxCell id="CR7Bd920Yuq2MpIPKO0S-5" style="edgeStyle=orthogonalEdgeStyle;rounded=0;orthogonalLoop=1;jettySize=auto;html=1;dashed=1;dashPattern=1 2;entryX=0;entryY=0.5;entryDx=0;entryDy=0;" edge="1" parent="1" source="CR7Bd920Yuq2MpIPKO0S-2" target="CR7Bd920Yuq2MpIPKO0S-7">
          <mxGeometry relative="1" as="geometry">
            <mxPoint x="380" y="220" as="targetPoint" />
          </mxGeometry>
        </mxCell>
        <mxCell id="CR7Bd920Yuq2MpIPKO0S-2" value="" style="ellipse;whiteSpace=wrap;html=1;aspect=fixed;rounded=1;shadow=0;glass=0;sketch=0;align=left;fillColor=#d5e8d4;strokeColor=#82b366;" vertex="1" parent="1">
          <mxGeometry x="280.0000000000001" y="160" width="40" height="40" as="geometry" />
        </mxCell>
        <mxCell id="CR7Bd920Yuq2MpIPKO0S-6" style="edgeStyle=orthogonalEdgeStyle;rounded=0;orthogonalLoop=1;jettySize=auto;html=1;entryX=0;entryY=0.5;entryDx=0;entryDy=0;dashed=1;dashPattern=1 2;" edge="1" parent="1" source="CR7Bd920Yuq2MpIPKO0S-3" target="CR7Bd920Yuq2MpIPKO0S-4">
          <mxGeometry relative="1" as="geometry" />
        </mxCell>
        <mxCell id="CR7Bd920Yuq2MpIPKO0S-3" value="EntityShape&lt;br&gt;DATABASE" style="ellipse;whiteSpace=wrap;html=1;fillColor=#b0e3e6;strokeColor=#0e8088;" vertex="1" parent="1">
          <mxGeometry x="640.0000000000001" y="160" width="80" height="40" as="geometry" />
        </mxCell>
        <mxCell id="CR7Bd920Yuq2MpIPKO0S-4" value="TupleOf" style="ellipse;whiteSpace=wrap;html=1;fillColor=#b0e3e6;strokeColor=#0e8088;" vertex="1" parent="1">
          <mxGeometry x="760.0000000000001" y="160" width="80" height="40" as="geometry" />
        </mxCell>
        <mxCell id="CR7Bd920Yuq2MpIPKO0S-8" style="edgeStyle=orthogonalEdgeStyle;rounded=0;orthogonalLoop=1;jettySize=auto;html=1;entryX=0;entryY=0.5;entryDx=0;entryDy=0;dashed=1;dashPattern=1 2;" edge="1" parent="1" source="CR7Bd920Yuq2MpIPKO0S-7" target="CR7Bd920Yuq2MpIPKO0S-3">
          <mxGeometry relative="1" as="geometry" />
        </mxCell>
        <mxCell id="CR7Bd920Yuq2MpIPKO0S-7" value="BlockOf&lt;br&gt;x1to1" style="ellipse;whiteSpace=wrap;html=1;fillColor=#b0e3e6;strokeColor=#0e8088;" vertex="1" parent="1">
          <mxGeometry x="520.0000000000001" y="160" width="80" height="40" as="geometry" />
        </mxCell>
        <mxCell id="CR7Bd920Yuq2MpIPKO0S-16" style="edgeStyle=orthogonalEdgeStyle;rounded=0;orthogonalLoop=1;jettySize=auto;html=1;entryX=0;entryY=0.5;entryDx=0;entryDy=0;dashed=1;dashPattern=1 2;" edge="1" parent="1" source="CR7Bd920Yuq2MpIPKO0S-9" target="CR7Bd920Yuq2MpIPKO0S-11">
          <mxGeometry relative="1" as="geometry" />
        </mxCell>
        <mxCell id="CR7Bd920Yuq2MpIPKO0S-19" style="edgeStyle=orthogonalEdgeStyle;rounded=1;orthogonalLoop=1;jettySize=auto;html=1;entryX=0.5;entryY=1;entryDx=0;entryDy=0;" edge="1" parent="1" source="CR7Bd920Yuq2MpIPKO0S-9" target="CR7Bd920Yuq2MpIPKO0S-2">
          <mxGeometry relative="1" as="geometry">
            <Array as="points">
              <mxPoint x="220" y="220" />
              <mxPoint x="300" y="220" />
            </Array>
          </mxGeometry>
        </mxCell>
        <mxCell id="CR7Bd920Yuq2MpIPKO0S-9" value="head" style="rounded=1;whiteSpace=wrap;html=1;fillColor=#fff2cc;strokeColor=#d6b656;" vertex="1" parent="1">
          <mxGeometry x="200.00000000000017" y="240" width="40" height="40" as="geometry" />
        </mxCell>
        <mxCell id="CR7Bd920Yuq2MpIPKO0S-18" style="edgeStyle=orthogonalEdgeStyle;rounded=0;orthogonalLoop=1;jettySize=auto;html=1;exitX=1;exitY=0.5;exitDx=0;exitDy=0;entryX=0;entryY=0.5;entryDx=0;entryDy=0;dashed=1;dashPattern=1 2;" edge="1" parent="1" source="CR7Bd920Yuq2MpIPKO0S-10" target="CR7Bd920Yuq2MpIPKO0S-14">
          <mxGeometry relative="1" as="geometry" />
        </mxCell>
        <mxCell id="CR7Bd920Yuq2MpIPKO0S-20" style="edgeStyle=orthogonalEdgeStyle;rounded=1;orthogonalLoop=1;jettySize=auto;html=1;entryX=0.5;entryY=1;entryDx=0;entryDy=0;" edge="1" parent="1" source="CR7Bd920Yuq2MpIPKO0S-10" target="CR7Bd920Yuq2MpIPKO0S-2">
          <mxGeometry relative="1" as="geometry">
            <Array as="points">
              <mxPoint x="380" y="220" />
              <mxPoint x="300" y="220" />
            </Array>
          </mxGeometry>
        </mxCell>
        <mxCell id="CR7Bd920Yuq2MpIPKO0S-10" value="1" style="rounded=1;whiteSpace=wrap;html=1;fillColor=#fff2cc;strokeColor=#d6b656;" vertex="1" parent="1">
          <mxGeometry x="360.00000000000017" y="320" width="40" height="40" as="geometry" />
        </mxCell>
        <mxCell id="CR7Bd920Yuq2MpIPKO0S-17" style="edgeStyle=orthogonalEdgeStyle;rounded=0;orthogonalLoop=1;jettySize=auto;html=1;entryX=0;entryY=0.5;entryDx=0;entryDy=0;dashed=1;dashPattern=1 2;" edge="1" parent="1" source="CR7Bd920Yuq2MpIPKO0S-11" target="CR7Bd920Yuq2MpIPKO0S-12">
          <mxGeometry relative="1" as="geometry" />
        </mxCell>
        <mxCell id="CR7Bd920Yuq2MpIPKO0S-11" value="BlockOf&lt;br&gt;x1to1" style="ellipse;whiteSpace=wrap;html=1;fillColor=#b0e3e6;strokeColor=#0e8088;" vertex="1" parent="1">
          <mxGeometry x="520.0000000000001" y="240" width="80" height="40" as="geometry" />
        </mxCell>
        <mxCell id="CR7Bd920Yuq2MpIPKO0S-12" value="" style="ellipse;whiteSpace=wrap;html=1;dashed=1;" vertex="1" parent="1">
          <mxGeometry x="640" y="240" width="80" height="40" as="geometry" />
        </mxCell>
        <mxCell id="CR7Bd920Yuq2MpIPKO0S-13" style="edgeStyle=orthogonalEdgeStyle;rounded=0;orthogonalLoop=1;jettySize=auto;html=1;entryX=0;entryY=0.5;entryDx=0;entryDy=0;dashed=1;dashPattern=1 2;" edge="1" parent="1" source="CR7Bd920Yuq2MpIPKO0S-14" target="CR7Bd920Yuq2MpIPKO0S-15">
          <mxGeometry relative="1" as="geometry" />
        </mxCell>
        <mxCell id="CR7Bd920Yuq2MpIPKO0S-14" value="EntityShape&lt;br&gt;DATABASE" style="ellipse;whiteSpace=wrap;html=1;fillColor=#b0e3e6;strokeColor=#0e8088;" vertex="1" parent="1">
          <mxGeometry x="520.0000000000001" y="320" width="80" height="40" as="geometry" />
        </mxCell>
        <mxCell id="CR7Bd920Yuq2MpIPKO0S-15" value="TupleOf" style="ellipse;whiteSpace=wrap;html=1;fillColor=#b0e3e6;strokeColor=#0e8088;" vertex="1" parent="1">
          <mxGeometry x="640.0000000000001" y="320" width="80" height="40" as="geometry" />
        </mxCell>
        <mxCell id="CR7Bd920Yuq2MpIPKO0S-22" style="edgeStyle=orthogonalEdgeStyle;rounded=1;orthogonalLoop=1;jettySize=auto;html=1;entryX=0.5;entryY=1;entryDx=0;entryDy=0;" edge="1" parent="1" source="CR7Bd920Yuq2MpIPKO0S-21" target="CR7Bd920Yuq2MpIPKO0S-10">
          <mxGeometry relative="1" as="geometry" />
        </mxCell>
        <mxCell id="CR7Bd920Yuq2MpIPKO0S-27" style="edgeStyle=orthogonalEdgeStyle;rounded=1;orthogonalLoop=1;jettySize=auto;html=1;entryX=0;entryY=0.5;entryDx=0;entryDy=0;dashed=1;dashPattern=1 2;" edge="1" parent="1" source="CR7Bd920Yuq2MpIPKO0S-21" target="CR7Bd920Yuq2MpIPKO0S-23">
          <mxGeometry relative="1" as="geometry" />
        </mxCell>
        <mxCell id="CR7Bd920Yuq2MpIPKO0S-21" value="load_table(&lt;br&gt;&quot;patient&quot;,[&quot;id&quot;])&lt;br&gt;SELECT id&lt;br&gt;FROM patient" style="rounded=1;whiteSpace=wrap;html=1;fillColor=#d5e8d4;strokeColor=#82b366;" vertex="1" parent="1">
          <mxGeometry x="320" y="400" width="120" height="80" as="geometry" />
        </mxCell>
        <mxCell id="CR7Bd920Yuq2MpIPKO0S-28" style="edgeStyle=orthogonalEdgeStyle;rounded=1;orthogonalLoop=1;jettySize=auto;html=1;exitX=1;exitY=0.5;exitDx=0;exitDy=0;entryX=0;entryY=0.5;entryDx=0;entryDy=0;dashed=1;dashPattern=1 2;" edge="1" parent="1" source="CR7Bd920Yuq2MpIPKO0S-23" target="CR7Bd920Yuq2MpIPKO0S-24">
          <mxGeometry relative="1" as="geometry" />
        </mxCell>
        <mxCell id="CR7Bd920Yuq2MpIPKO0S-23" value="BlockOf&lt;br&gt;x0toN" style="ellipse;whiteSpace=wrap;html=1;fillColor=#b0e3e6;strokeColor=#0e8088;" vertex="1" parent="1">
          <mxGeometry x="520.0000000000001" y="420" width="80" height="40" as="geometry" />
        </mxCell>
        <mxCell id="CR7Bd920Yuq2MpIPKO0S-29" style="edgeStyle=orthogonalEdgeStyle;rounded=1;orthogonalLoop=1;jettySize=auto;html=1;exitX=1;exitY=0.5;exitDx=0;exitDy=0;entryX=0;entryY=0.5;entryDx=0;entryDy=0;dashed=1;dashPattern=1 2;" edge="1" parent="1" source="CR7Bd920Yuq2MpIPKO0S-24" target="CR7Bd920Yuq2MpIPKO0S-25">
          <mxGeometry relative="1" as="geometry" />
        </mxCell>
        <mxCell id="CR7Bd920Yuq2MpIPKO0S-24" value="EntityShape&lt;br&gt;&quot;patient&quot;" style="ellipse;whiteSpace=wrap;html=1;fillColor=#b0e3e6;strokeColor=#0e8088;" vertex="1" parent="1">
          <mxGeometry x="640.0000000000001" y="420" width="80" height="40" as="geometry" />
        </mxCell>
        <mxCell id="CR7Bd920Yuq2MpIPKO0S-30" style="edgeStyle=orthogonalEdgeStyle;rounded=1;orthogonalLoop=1;jettySize=auto;html=1;exitX=1;exitY=0.5;exitDx=0;exitDy=0;entryX=0;entryY=0.5;entryDx=0;entryDy=0;dashed=1;dashPattern=1 2;" edge="1" parent="1" source="CR7Bd920Yuq2MpIPKO0S-25" target="CR7Bd920Yuq2MpIPKO0S-26">
          <mxGeometry relative="1" as="geometry" />
        </mxCell>
        <mxCell id="CR7Bd920Yuq2MpIPKO0S-25" value="TupleOf" style="ellipse;whiteSpace=wrap;html=1;fillColor=#b0e3e6;strokeColor=#0e8088;" vertex="1" parent="1">
          <mxGeometry x="760.0000000000001" y="420" width="80" height="40" as="geometry" />
        </mxCell>
        <mxCell id="CR7Bd920Yuq2MpIPKO0S-26" value="Int32" style="ellipse;whiteSpace=wrap;html=1;fillColor=#f5f5f5;strokeColor=#666666;fontColor=#333333;" vertex="1" parent="1">
          <mxGeometry x="880.0000000000001" y="420" width="80" height="40" as="geometry" />
        </mxCell>
        <mxCell id="CR7Bd920Yuq2MpIPKO0S-33" style="edgeStyle=orthogonalEdgeStyle;rounded=1;orthogonalLoop=1;jettySize=auto;html=1;entryX=0.5;entryY=1;entryDx=0;entryDy=0;" edge="1" parent="1" source="CR7Bd920Yuq2MpIPKO0S-31" target="CR7Bd920Yuq2MpIPKO0S-21">
          <mxGeometry relative="1" as="geometry" />
        </mxCell>
        <mxCell id="CR7Bd920Yuq2MpIPKO0S-42" style="edgeStyle=orthogonalEdgeStyle;rounded=1;orthogonalLoop=1;jettySize=auto;html=1;entryX=0;entryY=0.5;entryDx=0;entryDy=0;dashed=1;dashPattern=1 2;" edge="1" parent="1" source="CR7Bd920Yuq2MpIPKO0S-31" target="CR7Bd920Yuq2MpIPKO0S-35">
          <mxGeometry relative="1" as="geometry" />
        </mxCell>
        <mxCell id="CR7Bd920Yuq2MpIPKO0S-31" value="head" style="rounded=1;whiteSpace=wrap;html=1;fillColor=#fff2cc;strokeColor=#d6b656;" vertex="1" parent="1">
          <mxGeometry x="280.00000000000017" y="520" width="40" height="40" as="geometry" />
        </mxCell>
        <mxCell id="CR7Bd920Yuq2MpIPKO0S-34" style="edgeStyle=orthogonalEdgeStyle;rounded=1;orthogonalLoop=1;jettySize=auto;html=1;entryX=0.5;entryY=1;entryDx=0;entryDy=0;" edge="1" parent="1" source="CR7Bd920Yuq2MpIPKO0S-32" target="CR7Bd920Yuq2MpIPKO0S-21">
          <mxGeometry relative="1" as="geometry">
            <Array as="points">
              <mxPoint x="460" y="500" />
              <mxPoint x="380" y="500" />
            </Array>
          </mxGeometry>
        </mxCell>
        <mxCell id="CR7Bd920Yuq2MpIPKO0S-44" style="edgeStyle=orthogonalEdgeStyle;rounded=1;orthogonalLoop=1;jettySize=auto;html=1;exitX=1;exitY=0.5;exitDx=0;exitDy=0;entryX=0;entryY=0.5;entryDx=0;entryDy=0;dashed=1;dashPattern=1 2;" edge="1" parent="1" source="CR7Bd920Yuq2MpIPKO0S-32" target="CR7Bd920Yuq2MpIPKO0S-38">
          <mxGeometry relative="1" as="geometry" />
        </mxCell>
        <mxCell id="CR7Bd920Yuq2MpIPKO0S-32" value="1" style="rounded=1;whiteSpace=wrap;html=1;fillColor=#fff2cc;strokeColor=#d6b656;" vertex="1" parent="1">
          <mxGeometry x="440.00000000000017" y="600" width="40" height="40" as="geometry" />
        </mxCell>
        <mxCell id="CR7Bd920Yuq2MpIPKO0S-43" style="edgeStyle=orthogonalEdgeStyle;rounded=1;orthogonalLoop=1;jettySize=auto;html=1;entryX=0;entryY=0.5;entryDx=0;entryDy=0;dashed=1;dashPattern=1 2;" edge="1" parent="1" source="CR7Bd920Yuq2MpIPKO0S-35" target="CR7Bd920Yuq2MpIPKO0S-36">
          <mxGeometry relative="1" as="geometry" />
        </mxCell>
        <mxCell id="CR7Bd920Yuq2MpIPKO0S-35" value="BlockOf&lt;br&gt;x0toN" style="ellipse;whiteSpace=wrap;html=1;fillColor=#b0e3e6;strokeColor=#0e8088;" vertex="1" parent="1">
          <mxGeometry x="520.0000000000001" y="520" width="80" height="40" as="geometry" />
        </mxCell>
        <mxCell id="CR7Bd920Yuq2MpIPKO0S-36" value="" style="ellipse;whiteSpace=wrap;html=1;dashed=1;" vertex="1" parent="1">
          <mxGeometry x="640" y="520" width="80" height="40" as="geometry" />
        </mxCell>
        <mxCell id="CR7Bd920Yuq2MpIPKO0S-37" style="edgeStyle=orthogonalEdgeStyle;rounded=1;orthogonalLoop=1;jettySize=auto;html=1;exitX=1;exitY=0.5;exitDx=0;exitDy=0;entryX=0;entryY=0.5;entryDx=0;entryDy=0;dashed=1;dashPattern=1 2;" edge="1" parent="1" source="CR7Bd920Yuq2MpIPKO0S-38" target="CR7Bd920Yuq2MpIPKO0S-40">
          <mxGeometry relative="1" as="geometry" />
        </mxCell>
        <mxCell id="CR7Bd920Yuq2MpIPKO0S-38" value="EntityShape&lt;br&gt;&quot;patient&quot;" style="ellipse;whiteSpace=wrap;html=1;fillColor=#b0e3e6;strokeColor=#0e8088;" vertex="1" parent="1">
          <mxGeometry x="520.0000000000001" y="600" width="80" height="40" as="geometry" />
        </mxCell>
        <mxCell id="CR7Bd920Yuq2MpIPKO0S-39" style="edgeStyle=orthogonalEdgeStyle;rounded=1;orthogonalLoop=1;jettySize=auto;html=1;exitX=1;exitY=0.5;exitDx=0;exitDy=0;entryX=0;entryY=0.5;entryDx=0;entryDy=0;dashed=1;dashPattern=1 2;" edge="1" parent="1" source="CR7Bd920Yuq2MpIPKO0S-40" target="CR7Bd920Yuq2MpIPKO0S-41">
          <mxGeometry relative="1" as="geometry" />
        </mxCell>
        <mxCell id="CR7Bd920Yuq2MpIPKO0S-40" value="TupleOf" style="ellipse;whiteSpace=wrap;html=1;fillColor=#b0e3e6;strokeColor=#0e8088;" vertex="1" parent="1">
          <mxGeometry x="640.0000000000001" y="600" width="80" height="40" as="geometry" />
        </mxCell>
        <mxCell id="CR7Bd920Yuq2MpIPKO0S-41" value="Int32" style="ellipse;whiteSpace=wrap;html=1;fillColor=#f5f5f5;strokeColor=#666666;fontColor=#333333;" vertex="1" parent="1">
          <mxGeometry x="760.0000000000001" y="600" width="80" height="40" as="geometry" />
        </mxCell>
        <mxCell id="CR7Bd920Yuq2MpIPKO0S-56" style="edgeStyle=orthogonalEdgeStyle;rounded=1;orthogonalLoop=1;jettySize=auto;html=1;entryX=0.5;entryY=1;entryDx=0;entryDy=0;" edge="1" parent="1" source="CR7Bd920Yuq2MpIPKO0S-45" target="CR7Bd920Yuq2MpIPKO0S-47">
          <mxGeometry relative="1" as="geometry" />
        </mxCell>
        <mxCell id="CR7Bd920Yuq2MpIPKO0S-60" style="edgeStyle=orthogonalEdgeStyle;rounded=1;orthogonalLoop=1;jettySize=auto;html=1;entryX=0;entryY=0.5;entryDx=0;entryDy=0;dashed=1;dashPattern=1 2;" edge="1" parent="1" source="CR7Bd920Yuq2MpIPKO0S-45" target="CR7Bd920Yuq2MpIPKO0S-58">
          <mxGeometry relative="1" as="geometry" />
        </mxCell>
        <mxCell id="CR7Bd920Yuq2MpIPKO0S-45" value="flatten()" style="rounded=1;whiteSpace=wrap;html=1;fillColor=#d5e8d4;strokeColor=#82b366;" vertex="1" parent="1">
          <mxGeometry x="180" y="760" width="80" height="40" as="geometry" />
        </mxCell>
        <mxCell id="CR7Bd920Yuq2MpIPKO0S-48" style="edgeStyle=orthogonalEdgeStyle;rounded=1;orthogonalLoop=1;jettySize=auto;html=1;entryX=0.5;entryY=1;entryDx=0;entryDy=0;" edge="1" parent="1" source="CR7Bd920Yuq2MpIPKO0S-47" target="CR7Bd920Yuq2MpIPKO0S-9">
          <mxGeometry relative="1" as="geometry" />
        </mxCell>
        <mxCell id="CR7Bd920Yuq2MpIPKO0S-49" style="edgeStyle=orthogonalEdgeStyle;rounded=1;orthogonalLoop=1;jettySize=auto;html=1;entryX=0.5;entryY=1;entryDx=0;entryDy=0;" edge="1" parent="1" source="CR7Bd920Yuq2MpIPKO0S-47" target="CR7Bd920Yuq2MpIPKO0S-31">
          <mxGeometry relative="1" as="geometry" />
        </mxCell>
        <mxCell id="CR7Bd920Yuq2MpIPKO0S-54" style="edgeStyle=orthogonalEdgeStyle;rounded=1;orthogonalLoop=1;jettySize=auto;html=1;entryX=0;entryY=0.5;entryDx=0;entryDy=0;dashed=1;dashPattern=1 2;" edge="1" parent="1" source="CR7Bd920Yuq2MpIPKO0S-47" target="CR7Bd920Yuq2MpIPKO0S-50">
          <mxGeometry relative="1" as="geometry" />
        </mxCell>
        <mxCell id="CR7Bd920Yuq2MpIPKO0S-47" value="" style="rounded=0;whiteSpace=wrap;html=1;fillColor=#dae8fc;strokeColor=#6c8ebf;" vertex="1" parent="1">
          <mxGeometry x="209.99999999999994" y="690" width="20" height="20" as="geometry" />
        </mxCell>
        <mxCell id="CR7Bd920Yuq2MpIPKO0S-55" style="edgeStyle=orthogonalEdgeStyle;rounded=1;orthogonalLoop=1;jettySize=auto;html=1;exitX=1;exitY=0.5;exitDx=0;exitDy=0;entryX=0;entryY=0.5;entryDx=0;entryDy=0;dashed=1;dashPattern=1 2;" edge="1" parent="1" source="CR7Bd920Yuq2MpIPKO0S-50" target="CR7Bd920Yuq2MpIPKO0S-52">
          <mxGeometry relative="1" as="geometry" />
        </mxCell>
        <mxCell id="CR7Bd920Yuq2MpIPKO0S-50" value="BlockOf&lt;br&gt;x1to1" style="ellipse;whiteSpace=wrap;html=1;fillColor=#b0e3e6;strokeColor=#0e8088;" vertex="1" parent="1">
          <mxGeometry x="520.0000000000001" y="680" width="80" height="40" as="geometry" />
        </mxCell>
        <mxCell id="CR7Bd920Yuq2MpIPKO0S-51" style="edgeStyle=orthogonalEdgeStyle;rounded=1;orthogonalLoop=1;jettySize=auto;html=1;entryX=0;entryY=0.5;entryDx=0;entryDy=0;dashed=1;dashPattern=1 2;" edge="1" parent="1" source="CR7Bd920Yuq2MpIPKO0S-52" target="CR7Bd920Yuq2MpIPKO0S-53">
          <mxGeometry relative="1" as="geometry" />
        </mxCell>
        <mxCell id="CR7Bd920Yuq2MpIPKO0S-52" value="BlockOf&lt;br&gt;x0toN" style="ellipse;whiteSpace=wrap;html=1;fillColor=#b0e3e6;strokeColor=#0e8088;" vertex="1" parent="1">
          <mxGeometry x="640.0000000000001" y="680" width="80" height="40" as="geometry" />
        </mxCell>
        <mxCell id="CR7Bd920Yuq2MpIPKO0S-53" value="" style="ellipse;whiteSpace=wrap;html=1;dashed=1;" vertex="1" parent="1">
          <mxGeometry x="760" y="680" width="80" height="40" as="geometry" />
        </mxCell>
        <mxCell id="CR7Bd920Yuq2MpIPKO0S-57" style="edgeStyle=orthogonalEdgeStyle;rounded=1;orthogonalLoop=1;jettySize=auto;html=1;entryX=0;entryY=0.5;entryDx=0;entryDy=0;dashed=1;dashPattern=1 2;" edge="1" parent="1" source="CR7Bd920Yuq2MpIPKO0S-58" target="CR7Bd920Yuq2MpIPKO0S-59">
          <mxGeometry relative="1" as="geometry" />
        </mxCell>
        <mxCell id="CR7Bd920Yuq2MpIPKO0S-58" value="BlockOf&lt;br&gt;x0toN" style="ellipse;whiteSpace=wrap;html=1;fillColor=#b0e3e6;strokeColor=#0e8088;" vertex="1" parent="1">
          <mxGeometry x="520.0000000000001" y="760" width="80" height="40" as="geometry" />
        </mxCell>
        <mxCell id="CR7Bd920Yuq2MpIPKO0S-59" value="" style="ellipse;whiteSpace=wrap;html=1;dashed=1;" vertex="1" parent="1">
          <mxGeometry x="640" y="760" width="80" height="40" as="geometry" />
        </mxCell>
        <mxCell id="CR7Bd920Yuq2MpIPKO0S-62" style="edgeStyle=orthogonalEdgeStyle;rounded=1;orthogonalLoop=1;jettySize=auto;html=1;entryX=0.5;entryY=1;entryDx=0;entryDy=0;" edge="1" parent="1" source="CR7Bd920Yuq2MpIPKO0S-61" target="CR7Bd920Yuq2MpIPKO0S-45">
          <mxGeometry relative="1" as="geometry" />
        </mxCell>
        <mxCell id="CR7Bd920Yuq2MpIPKO0S-63" style="edgeStyle=orthogonalEdgeStyle;rounded=1;orthogonalLoop=1;jettySize=auto;html=1;entryX=0.5;entryY=1;entryDx=0;entryDy=0;" edge="1" parent="1" source="CR7Bd920Yuq2MpIPKO0S-61" target="CR7Bd920Yuq2MpIPKO0S-32">
          <mxGeometry relative="1" as="geometry" />
        </mxCell>
        <mxCell id="CR7Bd920Yuq2MpIPKO0S-71" style="edgeStyle=orthogonalEdgeStyle;rounded=1;orthogonalLoop=1;jettySize=auto;html=1;entryX=0;entryY=0.5;entryDx=0;entryDy=0;dashed=1;dashPattern=1 2;" edge="1" parent="1" source="CR7Bd920Yuq2MpIPKO0S-61" target="CR7Bd920Yuq2MpIPKO0S-65">
          <mxGeometry relative="1" as="geometry" />
        </mxCell>
        <mxCell id="CR7Bd920Yuq2MpIPKO0S-61" value="" style="rounded=0;whiteSpace=wrap;html=1;fillColor=#dae8fc;strokeColor=#6c8ebf;" vertex="1" parent="1">
          <mxGeometry x="209.99999999999994" y="850" width="20" height="20" as="geometry" />
        </mxCell>
        <mxCell id="CR7Bd920Yuq2MpIPKO0S-64" style="edgeStyle=orthogonalEdgeStyle;rounded=1;orthogonalLoop=1;jettySize=auto;html=1;exitX=1;exitY=0.5;exitDx=0;exitDy=0;entryX=0;entryY=0.5;entryDx=0;entryDy=0;dashed=1;dashPattern=1 2;" edge="1" parent="1" source="CR7Bd920Yuq2MpIPKO0S-65" target="CR7Bd920Yuq2MpIPKO0S-67">
          <mxGeometry relative="1" as="geometry" />
        </mxCell>
        <mxCell id="CR7Bd920Yuq2MpIPKO0S-65" value="BlockOf&lt;br&gt;x0toN" style="ellipse;whiteSpace=wrap;html=1;fillColor=#b0e3e6;strokeColor=#0e8088;" vertex="1" parent="1">
          <mxGeometry x="520.0000000000001" y="840" width="80" height="40" as="geometry" />
        </mxCell>
        <mxCell id="CR7Bd920Yuq2MpIPKO0S-66" style="edgeStyle=orthogonalEdgeStyle;rounded=1;orthogonalLoop=1;jettySize=auto;html=1;exitX=1;exitY=0.5;exitDx=0;exitDy=0;entryX=0;entryY=0.5;entryDx=0;entryDy=0;dashed=1;dashPattern=1 2;" edge="1" parent="1" source="CR7Bd920Yuq2MpIPKO0S-67" target="CR7Bd920Yuq2MpIPKO0S-69">
          <mxGeometry relative="1" as="geometry" />
        </mxCell>
        <mxCell id="CR7Bd920Yuq2MpIPKO0S-67" value="EntityShape&lt;br&gt;&quot;patient&quot;" style="ellipse;whiteSpace=wrap;html=1;fillColor=#b0e3e6;strokeColor=#0e8088;" vertex="1" parent="1">
          <mxGeometry x="640.0000000000001" y="840" width="80" height="40" as="geometry" />
        </mxCell>
        <mxCell id="CR7Bd920Yuq2MpIPKO0S-68" style="edgeStyle=orthogonalEdgeStyle;rounded=1;orthogonalLoop=1;jettySize=auto;html=1;exitX=1;exitY=0.5;exitDx=0;exitDy=0;entryX=0;entryY=0.5;entryDx=0;entryDy=0;dashed=1;dashPattern=1 2;" edge="1" parent="1" source="CR7Bd920Yuq2MpIPKO0S-69" target="CR7Bd920Yuq2MpIPKO0S-70">
          <mxGeometry relative="1" as="geometry" />
        </mxCell>
        <mxCell id="CR7Bd920Yuq2MpIPKO0S-69" value="TupleOf" style="ellipse;whiteSpace=wrap;html=1;fillColor=#b0e3e6;strokeColor=#0e8088;" vertex="1" parent="1">
          <mxGeometry x="760.0000000000001" y="840" width="80" height="40" as="geometry" />
        </mxCell>
        <mxCell id="CR7Bd920Yuq2MpIPKO0S-70" value="Int32" style="ellipse;whiteSpace=wrap;html=1;fillColor=#f5f5f5;strokeColor=#666666;fontColor=#333333;" vertex="1" parent="1">
          <mxGeometry x="880.0000000000001" y="840" width="80" height="40" as="geometry" />
        </mxCell>
      </root>
    </mxGraphModel>
  </diagram>
  <diagram name="patient.mrn" id="7sr-FmiR4OHwOT4otWSz">
    <mxGraphModel dx="1153" dy="3941" grid="1" gridSize="10" guides="1" tooltips="1" connect="1" arrows="1" fold="1" page="1" pageScale="1" pageWidth="2339" pageHeight="3300" math="0" shadow="0">
      <root>
        <mxCell id="2vQZAce-5nHGLV8ph5eL-0" />
        <mxCell id="2vQZAce-5nHGLV8ph5eL-1" parent="2vQZAce-5nHGLV8ph5eL-0" />
        <mxCell id="2vQZAce-5nHGLV8ph5eL-2" value="&lt;pre&gt;chain_of(with_elements(load_postgres_table((&quot;public&quot;, &quot;patient&quot;), [&quot;id&quot;], [Int32])),&lt;br&gt;         flatten(),&lt;br&gt;         with_elements(&lt;br&gt;             chain_of(&lt;br&gt;                 load_postgres_table((&quot;public&quot;, &quot;patient&quot;), [&quot;mrn&quot;], [String], [&quot;id&quot;]),&lt;br&gt;                 block_cardinality(x1to1))),&lt;br&gt;         flatten(),&lt;br&gt;         with_elements(&lt;br&gt;             chain_of(&lt;br&gt;                 output(),&lt;br&gt;                 column(1))))&lt;br&gt;&lt;/pre&gt;" style="text;html=1;align=left;verticalAlign=middle;resizable=0;points=[];autosize=1;" vertex="1" parent="2vQZAce-5nHGLV8ph5eL-1">
          <mxGeometry x="40" width="640" height="180" as="geometry" />
        </mxCell>
        <mxCell id="2vQZAce-5nHGLV8ph5eL-3" style="edgeStyle=orthogonalEdgeStyle;rounded=0;orthogonalLoop=1;jettySize=auto;html=1;dashed=1;dashPattern=1 2;entryX=0;entryY=0.5;entryDx=0;entryDy=0;" edge="1" parent="2vQZAce-5nHGLV8ph5eL-1" source="2vQZAce-5nHGLV8ph5eL-4" target="2vQZAce-5nHGLV8ph5eL-9">
          <mxGeometry relative="1" as="geometry">
            <mxPoint x="380" y="300" as="targetPoint" />
          </mxGeometry>
        </mxCell>
        <mxCell id="2vQZAce-5nHGLV8ph5eL-4" value="" style="ellipse;whiteSpace=wrap;html=1;aspect=fixed;rounded=1;shadow=0;glass=0;sketch=0;align=left;fillColor=#d5e8d4;strokeColor=#82b366;" vertex="1" parent="2vQZAce-5nHGLV8ph5eL-1">
          <mxGeometry x="280.0000000000001" y="240" width="40" height="40" as="geometry" />
        </mxCell>
        <mxCell id="2vQZAce-5nHGLV8ph5eL-5" style="edgeStyle=orthogonalEdgeStyle;rounded=0;orthogonalLoop=1;jettySize=auto;html=1;entryX=0;entryY=0.5;entryDx=0;entryDy=0;dashed=1;dashPattern=1 2;" edge="1" parent="2vQZAce-5nHGLV8ph5eL-1" source="2vQZAce-5nHGLV8ph5eL-6" target="2vQZAce-5nHGLV8ph5eL-7">
          <mxGeometry relative="1" as="geometry" />
        </mxCell>
        <mxCell id="2vQZAce-5nHGLV8ph5eL-6" value="EntityShape&lt;br&gt;DATABASE" style="ellipse;whiteSpace=wrap;html=1;fillColor=#b0e3e6;strokeColor=#0e8088;" vertex="1" parent="2vQZAce-5nHGLV8ph5eL-1">
          <mxGeometry x="640.0000000000001" y="240" width="80" height="40" as="geometry" />
        </mxCell>
        <mxCell id="2vQZAce-5nHGLV8ph5eL-7" value="TupleOf" style="ellipse;whiteSpace=wrap;html=1;fillColor=#b0e3e6;strokeColor=#0e8088;" vertex="1" parent="2vQZAce-5nHGLV8ph5eL-1">
          <mxGeometry x="760.0000000000001" y="240" width="80" height="40" as="geometry" />
        </mxCell>
        <mxCell id="2vQZAce-5nHGLV8ph5eL-8" style="edgeStyle=orthogonalEdgeStyle;rounded=0;orthogonalLoop=1;jettySize=auto;html=1;entryX=0;entryY=0.5;entryDx=0;entryDy=0;dashed=1;dashPattern=1 2;" edge="1" parent="2vQZAce-5nHGLV8ph5eL-1" source="2vQZAce-5nHGLV8ph5eL-9" target="2vQZAce-5nHGLV8ph5eL-6">
          <mxGeometry relative="1" as="geometry" />
        </mxCell>
        <mxCell id="2vQZAce-5nHGLV8ph5eL-9" value="BlockOf&lt;br&gt;x1to1" style="ellipse;whiteSpace=wrap;html=1;fillColor=#b0e3e6;strokeColor=#0e8088;" vertex="1" parent="2vQZAce-5nHGLV8ph5eL-1">
          <mxGeometry x="520.0000000000001" y="240" width="80" height="40" as="geometry" />
        </mxCell>
        <mxCell id="2vQZAce-5nHGLV8ph5eL-10" style="edgeStyle=orthogonalEdgeStyle;rounded=0;orthogonalLoop=1;jettySize=auto;html=1;entryX=0;entryY=0.5;entryDx=0;entryDy=0;dashed=1;dashPattern=1 2;" edge="1" parent="2vQZAce-5nHGLV8ph5eL-1" source="2vQZAce-5nHGLV8ph5eL-12" target="2vQZAce-5nHGLV8ph5eL-17">
          <mxGeometry relative="1" as="geometry" />
        </mxCell>
        <mxCell id="2vQZAce-5nHGLV8ph5eL-11" style="edgeStyle=orthogonalEdgeStyle;rounded=1;orthogonalLoop=1;jettySize=auto;html=1;entryX=0.5;entryY=1;entryDx=0;entryDy=0;" edge="1" parent="2vQZAce-5nHGLV8ph5eL-1" source="2vQZAce-5nHGLV8ph5eL-12" target="2vQZAce-5nHGLV8ph5eL-4">
          <mxGeometry relative="1" as="geometry">
            <Array as="points">
              <mxPoint x="220" y="300" />
              <mxPoint x="300" y="300" />
            </Array>
          </mxGeometry>
        </mxCell>
        <mxCell id="2vQZAce-5nHGLV8ph5eL-12" value="head" style="rounded=1;whiteSpace=wrap;html=1;fillColor=#fff2cc;strokeColor=#d6b656;" vertex="1" parent="2vQZAce-5nHGLV8ph5eL-1">
          <mxGeometry x="200.00000000000017" y="320" width="40" height="40" as="geometry" />
        </mxCell>
        <mxCell id="2vQZAce-5nHGLV8ph5eL-13" style="edgeStyle=orthogonalEdgeStyle;rounded=0;orthogonalLoop=1;jettySize=auto;html=1;exitX=1;exitY=0.5;exitDx=0;exitDy=0;entryX=0;entryY=0.5;entryDx=0;entryDy=0;dashed=1;dashPattern=1 2;" edge="1" parent="2vQZAce-5nHGLV8ph5eL-1" source="2vQZAce-5nHGLV8ph5eL-15" target="2vQZAce-5nHGLV8ph5eL-20">
          <mxGeometry relative="1" as="geometry" />
        </mxCell>
        <mxCell id="2vQZAce-5nHGLV8ph5eL-14" style="edgeStyle=orthogonalEdgeStyle;rounded=1;orthogonalLoop=1;jettySize=auto;html=1;entryX=0.5;entryY=1;entryDx=0;entryDy=0;" edge="1" parent="2vQZAce-5nHGLV8ph5eL-1" source="2vQZAce-5nHGLV8ph5eL-15" target="2vQZAce-5nHGLV8ph5eL-4">
          <mxGeometry relative="1" as="geometry">
            <Array as="points">
              <mxPoint x="380" y="300" />
              <mxPoint x="300" y="300" />
            </Array>
          </mxGeometry>
        </mxCell>
        <mxCell id="2vQZAce-5nHGLV8ph5eL-15" value="1" style="rounded=1;whiteSpace=wrap;html=1;fillColor=#fff2cc;strokeColor=#d6b656;" vertex="1" parent="2vQZAce-5nHGLV8ph5eL-1">
          <mxGeometry x="360.00000000000017" y="400" width="40" height="40" as="geometry" />
        </mxCell>
        <mxCell id="2vQZAce-5nHGLV8ph5eL-16" style="edgeStyle=orthogonalEdgeStyle;rounded=0;orthogonalLoop=1;jettySize=auto;html=1;entryX=0;entryY=0.5;entryDx=0;entryDy=0;dashed=1;dashPattern=1 2;" edge="1" parent="2vQZAce-5nHGLV8ph5eL-1" source="2vQZAce-5nHGLV8ph5eL-17" target="2vQZAce-5nHGLV8ph5eL-18">
          <mxGeometry relative="1" as="geometry" />
        </mxCell>
        <mxCell id="2vQZAce-5nHGLV8ph5eL-17" value="BlockOf&lt;br&gt;x1to1" style="ellipse;whiteSpace=wrap;html=1;fillColor=#b0e3e6;strokeColor=#0e8088;" vertex="1" parent="2vQZAce-5nHGLV8ph5eL-1">
          <mxGeometry x="520.0000000000001" y="320" width="80" height="40" as="geometry" />
        </mxCell>
        <mxCell id="2vQZAce-5nHGLV8ph5eL-18" value="" style="ellipse;whiteSpace=wrap;html=1;dashed=1;" vertex="1" parent="2vQZAce-5nHGLV8ph5eL-1">
          <mxGeometry x="640" y="320" width="80" height="40" as="geometry" />
        </mxCell>
        <mxCell id="2vQZAce-5nHGLV8ph5eL-19" style="edgeStyle=orthogonalEdgeStyle;rounded=0;orthogonalLoop=1;jettySize=auto;html=1;entryX=0;entryY=0.5;entryDx=0;entryDy=0;dashed=1;dashPattern=1 2;" edge="1" parent="2vQZAce-5nHGLV8ph5eL-1" source="2vQZAce-5nHGLV8ph5eL-20" target="2vQZAce-5nHGLV8ph5eL-21">
          <mxGeometry relative="1" as="geometry" />
        </mxCell>
        <mxCell id="2vQZAce-5nHGLV8ph5eL-20" value="EntityShape&lt;br&gt;DATABASE" style="ellipse;whiteSpace=wrap;html=1;fillColor=#b0e3e6;strokeColor=#0e8088;" vertex="1" parent="2vQZAce-5nHGLV8ph5eL-1">
          <mxGeometry x="520.0000000000001" y="400" width="80" height="40" as="geometry" />
        </mxCell>
        <mxCell id="2vQZAce-5nHGLV8ph5eL-21" value="TupleOf" style="ellipse;whiteSpace=wrap;html=1;fillColor=#b0e3e6;strokeColor=#0e8088;" vertex="1" parent="2vQZAce-5nHGLV8ph5eL-1">
          <mxGeometry x="640.0000000000001" y="400" width="80" height="40" as="geometry" />
        </mxCell>
        <mxCell id="2vQZAce-5nHGLV8ph5eL-22" style="edgeStyle=orthogonalEdgeStyle;rounded=1;orthogonalLoop=1;jettySize=auto;html=1;entryX=0.5;entryY=1;entryDx=0;entryDy=0;" edge="1" parent="2vQZAce-5nHGLV8ph5eL-1" source="2vQZAce-5nHGLV8ph5eL-24" target="2vQZAce-5nHGLV8ph5eL-15">
          <mxGeometry relative="1" as="geometry" />
        </mxCell>
        <mxCell id="2vQZAce-5nHGLV8ph5eL-23" style="edgeStyle=orthogonalEdgeStyle;rounded=1;orthogonalLoop=1;jettySize=auto;html=1;entryX=0;entryY=0.5;entryDx=0;entryDy=0;dashed=1;dashPattern=1 2;" edge="1" parent="2vQZAce-5nHGLV8ph5eL-1" source="2vQZAce-5nHGLV8ph5eL-24" target="2vQZAce-5nHGLV8ph5eL-26">
          <mxGeometry relative="1" as="geometry" />
        </mxCell>
        <mxCell id="2vQZAce-5nHGLV8ph5eL-24" value="load_table(&lt;br&gt;&quot;patient&quot;,[&quot;id&quot;])&lt;br&gt;SELECT id&lt;br&gt;FROM patient" style="rounded=1;whiteSpace=wrap;html=1;fillColor=#d5e8d4;strokeColor=#82b366;" vertex="1" parent="2vQZAce-5nHGLV8ph5eL-1">
          <mxGeometry x="320" y="480" width="120" height="80" as="geometry" />
        </mxCell>
        <mxCell id="2vQZAce-5nHGLV8ph5eL-25" style="edgeStyle=orthogonalEdgeStyle;rounded=1;orthogonalLoop=1;jettySize=auto;html=1;exitX=1;exitY=0.5;exitDx=0;exitDy=0;entryX=0;entryY=0.5;entryDx=0;entryDy=0;dashed=1;dashPattern=1 2;" edge="1" parent="2vQZAce-5nHGLV8ph5eL-1" source="2vQZAce-5nHGLV8ph5eL-26" target="2vQZAce-5nHGLV8ph5eL-28">
          <mxGeometry relative="1" as="geometry" />
        </mxCell>
        <mxCell id="2vQZAce-5nHGLV8ph5eL-26" value="BlockOf&lt;br&gt;x0toN" style="ellipse;whiteSpace=wrap;html=1;fillColor=#b0e3e6;strokeColor=#0e8088;" vertex="1" parent="2vQZAce-5nHGLV8ph5eL-1">
          <mxGeometry x="520.0000000000001" y="500" width="80" height="40" as="geometry" />
        </mxCell>
        <mxCell id="2vQZAce-5nHGLV8ph5eL-27" style="edgeStyle=orthogonalEdgeStyle;rounded=1;orthogonalLoop=1;jettySize=auto;html=1;exitX=1;exitY=0.5;exitDx=0;exitDy=0;entryX=0;entryY=0.5;entryDx=0;entryDy=0;dashed=1;dashPattern=1 2;" edge="1" parent="2vQZAce-5nHGLV8ph5eL-1" source="2vQZAce-5nHGLV8ph5eL-28" target="2vQZAce-5nHGLV8ph5eL-30">
          <mxGeometry relative="1" as="geometry" />
        </mxCell>
        <mxCell id="2vQZAce-5nHGLV8ph5eL-28" value="EntityShape&lt;br&gt;&quot;patient&quot;" style="ellipse;whiteSpace=wrap;html=1;fillColor=#b0e3e6;strokeColor=#0e8088;" vertex="1" parent="2vQZAce-5nHGLV8ph5eL-1">
          <mxGeometry x="640.0000000000001" y="500" width="80" height="40" as="geometry" />
        </mxCell>
        <mxCell id="2vQZAce-5nHGLV8ph5eL-29" style="edgeStyle=orthogonalEdgeStyle;rounded=1;orthogonalLoop=1;jettySize=auto;html=1;exitX=1;exitY=0.5;exitDx=0;exitDy=0;entryX=0;entryY=0.5;entryDx=0;entryDy=0;dashed=1;dashPattern=1 2;" edge="1" parent="2vQZAce-5nHGLV8ph5eL-1" source="2vQZAce-5nHGLV8ph5eL-30" target="2vQZAce-5nHGLV8ph5eL-31">
          <mxGeometry relative="1" as="geometry" />
        </mxCell>
        <mxCell id="2vQZAce-5nHGLV8ph5eL-30" value="TupleOf" style="ellipse;whiteSpace=wrap;html=1;fillColor=#b0e3e6;strokeColor=#0e8088;" vertex="1" parent="2vQZAce-5nHGLV8ph5eL-1">
          <mxGeometry x="760.0000000000001" y="500" width="80" height="40" as="geometry" />
        </mxCell>
        <mxCell id="2vQZAce-5nHGLV8ph5eL-31" value="Int32" style="ellipse;whiteSpace=wrap;html=1;fillColor=#f5f5f5;strokeColor=#666666;fontColor=#333333;" vertex="1" parent="2vQZAce-5nHGLV8ph5eL-1">
          <mxGeometry x="880.0000000000001" y="500" width="80" height="40" as="geometry" />
        </mxCell>
        <mxCell id="2vQZAce-5nHGLV8ph5eL-32" style="edgeStyle=orthogonalEdgeStyle;rounded=1;orthogonalLoop=1;jettySize=auto;html=1;entryX=0.5;entryY=1;entryDx=0;entryDy=0;" edge="1" parent="2vQZAce-5nHGLV8ph5eL-1" source="2vQZAce-5nHGLV8ph5eL-34" target="2vQZAce-5nHGLV8ph5eL-24">
          <mxGeometry relative="1" as="geometry" />
        </mxCell>
        <mxCell id="2vQZAce-5nHGLV8ph5eL-33" style="edgeStyle=orthogonalEdgeStyle;rounded=1;orthogonalLoop=1;jettySize=auto;html=1;entryX=0;entryY=0.5;entryDx=0;entryDy=0;dashed=1;dashPattern=1 2;" edge="1" parent="2vQZAce-5nHGLV8ph5eL-1" source="2vQZAce-5nHGLV8ph5eL-34" target="2vQZAce-5nHGLV8ph5eL-39">
          <mxGeometry relative="1" as="geometry" />
        </mxCell>
        <mxCell id="2vQZAce-5nHGLV8ph5eL-34" value="head" style="rounded=1;whiteSpace=wrap;html=1;fillColor=#fff2cc;strokeColor=#d6b656;" vertex="1" parent="2vQZAce-5nHGLV8ph5eL-1">
          <mxGeometry x="280.00000000000017" y="600" width="40" height="40" as="geometry" />
        </mxCell>
        <mxCell id="2vQZAce-5nHGLV8ph5eL-35" style="edgeStyle=orthogonalEdgeStyle;rounded=1;orthogonalLoop=1;jettySize=auto;html=1;entryX=0.5;entryY=1;entryDx=0;entryDy=0;" edge="1" parent="2vQZAce-5nHGLV8ph5eL-1" source="2vQZAce-5nHGLV8ph5eL-37" target="2vQZAce-5nHGLV8ph5eL-24">
          <mxGeometry relative="1" as="geometry">
            <Array as="points">
              <mxPoint x="460" y="580" />
              <mxPoint x="380" y="580" />
            </Array>
          </mxGeometry>
        </mxCell>
        <mxCell id="2vQZAce-5nHGLV8ph5eL-36" style="edgeStyle=orthogonalEdgeStyle;rounded=1;orthogonalLoop=1;jettySize=auto;html=1;exitX=1;exitY=0.5;exitDx=0;exitDy=0;entryX=0;entryY=0.5;entryDx=0;entryDy=0;dashed=1;dashPattern=1 2;" edge="1" parent="2vQZAce-5nHGLV8ph5eL-1" source="2vQZAce-5nHGLV8ph5eL-37" target="2vQZAce-5nHGLV8ph5eL-42">
          <mxGeometry relative="1" as="geometry" />
        </mxCell>
        <mxCell id="2vQZAce-5nHGLV8ph5eL-37" value="1" style="rounded=1;whiteSpace=wrap;html=1;fillColor=#fff2cc;strokeColor=#d6b656;" vertex="1" parent="2vQZAce-5nHGLV8ph5eL-1">
          <mxGeometry x="440.00000000000017" y="680" width="40" height="40" as="geometry" />
        </mxCell>
        <mxCell id="2vQZAce-5nHGLV8ph5eL-38" style="edgeStyle=orthogonalEdgeStyle;rounded=1;orthogonalLoop=1;jettySize=auto;html=1;entryX=0;entryY=0.5;entryDx=0;entryDy=0;dashed=1;dashPattern=1 2;" edge="1" parent="2vQZAce-5nHGLV8ph5eL-1" source="2vQZAce-5nHGLV8ph5eL-39" target="2vQZAce-5nHGLV8ph5eL-40">
          <mxGeometry relative="1" as="geometry" />
        </mxCell>
        <mxCell id="2vQZAce-5nHGLV8ph5eL-39" value="BlockOf&lt;br&gt;x0toN" style="ellipse;whiteSpace=wrap;html=1;fillColor=#b0e3e6;strokeColor=#0e8088;" vertex="1" parent="2vQZAce-5nHGLV8ph5eL-1">
          <mxGeometry x="520.0000000000001" y="600" width="80" height="40" as="geometry" />
        </mxCell>
        <mxCell id="2vQZAce-5nHGLV8ph5eL-40" value="" style="ellipse;whiteSpace=wrap;html=1;dashed=1;" vertex="1" parent="2vQZAce-5nHGLV8ph5eL-1">
          <mxGeometry x="640" y="600" width="80" height="40" as="geometry" />
        </mxCell>
        <mxCell id="2vQZAce-5nHGLV8ph5eL-41" style="edgeStyle=orthogonalEdgeStyle;rounded=1;orthogonalLoop=1;jettySize=auto;html=1;exitX=1;exitY=0.5;exitDx=0;exitDy=0;entryX=0;entryY=0.5;entryDx=0;entryDy=0;dashed=1;dashPattern=1 2;" edge="1" parent="2vQZAce-5nHGLV8ph5eL-1" source="2vQZAce-5nHGLV8ph5eL-42" target="2vQZAce-5nHGLV8ph5eL-44">
          <mxGeometry relative="1" as="geometry" />
        </mxCell>
        <mxCell id="2vQZAce-5nHGLV8ph5eL-42" value="EntityShape&lt;br&gt;&quot;patient&quot;" style="ellipse;whiteSpace=wrap;html=1;fillColor=#b0e3e6;strokeColor=#0e8088;" vertex="1" parent="2vQZAce-5nHGLV8ph5eL-1">
          <mxGeometry x="520.0000000000001" y="680" width="80" height="40" as="geometry" />
        </mxCell>
        <mxCell id="2vQZAce-5nHGLV8ph5eL-43" style="edgeStyle=orthogonalEdgeStyle;rounded=1;orthogonalLoop=1;jettySize=auto;html=1;exitX=1;exitY=0.5;exitDx=0;exitDy=0;entryX=0;entryY=0.5;entryDx=0;entryDy=0;dashed=1;dashPattern=1 2;" edge="1" parent="2vQZAce-5nHGLV8ph5eL-1" source="2vQZAce-5nHGLV8ph5eL-44" target="2vQZAce-5nHGLV8ph5eL-45">
          <mxGeometry relative="1" as="geometry" />
        </mxCell>
        <mxCell id="2vQZAce-5nHGLV8ph5eL-44" value="TupleOf" style="ellipse;whiteSpace=wrap;html=1;fillColor=#b0e3e6;strokeColor=#0e8088;" vertex="1" parent="2vQZAce-5nHGLV8ph5eL-1">
          <mxGeometry x="640.0000000000001" y="680" width="80" height="40" as="geometry" />
        </mxCell>
        <mxCell id="2vQZAce-5nHGLV8ph5eL-45" value="Int32" style="ellipse;whiteSpace=wrap;html=1;fillColor=#f5f5f5;strokeColor=#666666;fontColor=#333333;" vertex="1" parent="2vQZAce-5nHGLV8ph5eL-1">
          <mxGeometry x="760.0000000000001" y="680" width="80" height="40" as="geometry" />
        </mxCell>
        <mxCell id="2vQZAce-5nHGLV8ph5eL-46" style="edgeStyle=orthogonalEdgeStyle;rounded=1;orthogonalLoop=1;jettySize=auto;html=1;entryX=0.5;entryY=1;entryDx=0;entryDy=0;" edge="1" parent="2vQZAce-5nHGLV8ph5eL-1" source="2vQZAce-5nHGLV8ph5eL-48" target="2vQZAce-5nHGLV8ph5eL-52">
          <mxGeometry relative="1" as="geometry" />
        </mxCell>
        <mxCell id="2vQZAce-5nHGLV8ph5eL-47" style="edgeStyle=orthogonalEdgeStyle;rounded=1;orthogonalLoop=1;jettySize=auto;html=1;entryX=0;entryY=0.5;entryDx=0;entryDy=0;dashed=1;dashPattern=1 2;" edge="1" parent="2vQZAce-5nHGLV8ph5eL-1" source="2vQZAce-5nHGLV8ph5eL-48" target="2vQZAce-5nHGLV8ph5eL-59">
          <mxGeometry relative="1" as="geometry" />
        </mxCell>
        <mxCell id="2vQZAce-5nHGLV8ph5eL-48" value="flatten()" style="rounded=1;whiteSpace=wrap;html=1;fillColor=#d5e8d4;strokeColor=#82b366;" vertex="1" parent="2vQZAce-5nHGLV8ph5eL-1">
          <mxGeometry x="180" y="1440" width="80" height="40" as="geometry" />
        </mxCell>
        <mxCell id="2vQZAce-5nHGLV8ph5eL-49" style="edgeStyle=orthogonalEdgeStyle;rounded=1;orthogonalLoop=1;jettySize=auto;html=1;entryX=0.5;entryY=1;entryDx=0;entryDy=0;" edge="1" parent="2vQZAce-5nHGLV8ph5eL-1" source="2vQZAce-5nHGLV8ph5eL-52" target="2vQZAce-5nHGLV8ph5eL-12">
          <mxGeometry relative="1" as="geometry" />
        </mxCell>
        <mxCell id="2vQZAce-5nHGLV8ph5eL-51" style="edgeStyle=orthogonalEdgeStyle;rounded=1;orthogonalLoop=1;jettySize=auto;html=1;entryX=0;entryY=0.5;entryDx=0;entryDy=0;dashed=1;dashPattern=1 2;" edge="1" parent="2vQZAce-5nHGLV8ph5eL-1" source="2vQZAce-5nHGLV8ph5eL-52" target="2vQZAce-5nHGLV8ph5eL-54">
          <mxGeometry relative="1" as="geometry" />
        </mxCell>
        <mxCell id="2vQZAce-5nHGLV8ph5eL-52" value="" style="rounded=0;whiteSpace=wrap;html=1;fillColor=#dae8fc;strokeColor=#6c8ebf;" vertex="1" parent="2vQZAce-5nHGLV8ph5eL-1">
          <mxGeometry x="209.99999999999994" y="1370" width="20" height="20" as="geometry" />
        </mxCell>
        <mxCell id="2vQZAce-5nHGLV8ph5eL-53" style="edgeStyle=orthogonalEdgeStyle;rounded=1;orthogonalLoop=1;jettySize=auto;html=1;exitX=1;exitY=0.5;exitDx=0;exitDy=0;entryX=0;entryY=0.5;entryDx=0;entryDy=0;dashed=1;dashPattern=1 2;" edge="1" parent="2vQZAce-5nHGLV8ph5eL-1" source="2vQZAce-5nHGLV8ph5eL-54" target="2vQZAce-5nHGLV8ph5eL-56">
          <mxGeometry relative="1" as="geometry" />
        </mxCell>
        <mxCell id="2vQZAce-5nHGLV8ph5eL-54" value="BlockOf&lt;br&gt;x1to1" style="ellipse;whiteSpace=wrap;html=1;fillColor=#b0e3e6;strokeColor=#0e8088;" vertex="1" parent="2vQZAce-5nHGLV8ph5eL-1">
          <mxGeometry x="520.0000000000001" y="1360" width="80" height="40" as="geometry" />
        </mxCell>
        <mxCell id="2vQZAce-5nHGLV8ph5eL-55" style="edgeStyle=orthogonalEdgeStyle;rounded=1;orthogonalLoop=1;jettySize=auto;html=1;entryX=0;entryY=0.5;entryDx=0;entryDy=0;dashed=1;dashPattern=1 2;" edge="1" parent="2vQZAce-5nHGLV8ph5eL-1" source="2vQZAce-5nHGLV8ph5eL-56" target="2vQZAce-5nHGLV8ph5eL-57">
          <mxGeometry relative="1" as="geometry" />
        </mxCell>
        <mxCell id="2vQZAce-5nHGLV8ph5eL-56" value="BlockOf&lt;br&gt;x0toN" style="ellipse;whiteSpace=wrap;html=1;fillColor=#b0e3e6;strokeColor=#0e8088;" vertex="1" parent="2vQZAce-5nHGLV8ph5eL-1">
          <mxGeometry x="640.0000000000001" y="1360" width="80" height="40" as="geometry" />
        </mxCell>
        <mxCell id="2vQZAce-5nHGLV8ph5eL-57" value="" style="ellipse;whiteSpace=wrap;html=1;dashed=1;" vertex="1" parent="2vQZAce-5nHGLV8ph5eL-1">
          <mxGeometry x="760" y="1360" width="80" height="40" as="geometry" />
        </mxCell>
        <mxCell id="2vQZAce-5nHGLV8ph5eL-58" style="edgeStyle=orthogonalEdgeStyle;rounded=1;orthogonalLoop=1;jettySize=auto;html=1;entryX=0;entryY=0.5;entryDx=0;entryDy=0;dashed=1;dashPattern=1 2;" edge="1" parent="2vQZAce-5nHGLV8ph5eL-1" source="2vQZAce-5nHGLV8ph5eL-59" target="2vQZAce-5nHGLV8ph5eL-60">
          <mxGeometry relative="1" as="geometry" />
        </mxCell>
        <mxCell id="2vQZAce-5nHGLV8ph5eL-59" value="BlockOf&lt;br&gt;x0toN" style="ellipse;whiteSpace=wrap;html=1;fillColor=#b0e3e6;strokeColor=#0e8088;" vertex="1" parent="2vQZAce-5nHGLV8ph5eL-1">
          <mxGeometry x="520.0000000000001" y="1440" width="80" height="40" as="geometry" />
        </mxCell>
        <mxCell id="2vQZAce-5nHGLV8ph5eL-60" value="" style="ellipse;whiteSpace=wrap;html=1;dashed=1;" vertex="1" parent="2vQZAce-5nHGLV8ph5eL-1">
          <mxGeometry x="640" y="1440" width="80" height="40" as="geometry" />
        </mxCell>
        <mxCell id="2vQZAce-5nHGLV8ph5eL-61" style="edgeStyle=orthogonalEdgeStyle;rounded=1;orthogonalLoop=1;jettySize=auto;html=1;entryX=0.5;entryY=1;entryDx=0;entryDy=0;" edge="1" parent="2vQZAce-5nHGLV8ph5eL-1" source="2vQZAce-5nHGLV8ph5eL-64" target="2vQZAce-5nHGLV8ph5eL-48">
          <mxGeometry relative="1" as="geometry" />
        </mxCell>
        <mxCell id="2vQZAce-5nHGLV8ph5eL-62" style="edgeStyle=orthogonalEdgeStyle;rounded=1;orthogonalLoop=1;jettySize=auto;html=1;entryX=0.5;entryY=1;entryDx=0;entryDy=0;" edge="1" parent="2vQZAce-5nHGLV8ph5eL-1" source="2vQZAce-5nHGLV8ph5eL-64" target="2vQZAce-5nHGLV8ph5eL-37">
          <mxGeometry relative="1" as="geometry" />
        </mxCell>
        <mxCell id="2vQZAce-5nHGLV8ph5eL-63" style="edgeStyle=orthogonalEdgeStyle;rounded=1;orthogonalLoop=1;jettySize=auto;html=1;entryX=0;entryY=0.5;entryDx=0;entryDy=0;dashed=1;dashPattern=1 2;" edge="1" parent="2vQZAce-5nHGLV8ph5eL-1" source="2vQZAce-5nHGLV8ph5eL-64" target="2vQZAce-5nHGLV8ph5eL-66">
          <mxGeometry relative="1" as="geometry" />
        </mxCell>
        <mxCell id="2vQZAce-5nHGLV8ph5eL-64" value="" style="rounded=0;whiteSpace=wrap;html=1;fillColor=#dae8fc;strokeColor=#6c8ebf;" vertex="1" parent="2vQZAce-5nHGLV8ph5eL-1">
          <mxGeometry x="209.99999999999994" y="1530" width="20" height="20" as="geometry" />
        </mxCell>
        <mxCell id="2vQZAce-5nHGLV8ph5eL-65" style="edgeStyle=orthogonalEdgeStyle;rounded=1;orthogonalLoop=1;jettySize=auto;html=1;exitX=1;exitY=0.5;exitDx=0;exitDy=0;entryX=0;entryY=0.5;entryDx=0;entryDy=0;dashed=1;dashPattern=1 2;" edge="1" parent="2vQZAce-5nHGLV8ph5eL-1" source="2vQZAce-5nHGLV8ph5eL-66" target="2vQZAce-5nHGLV8ph5eL-68">
          <mxGeometry relative="1" as="geometry" />
        </mxCell>
        <mxCell id="2vQZAce-5nHGLV8ph5eL-66" value="BlockOf&lt;br&gt;x0toN" style="ellipse;whiteSpace=wrap;html=1;fillColor=#b0e3e6;strokeColor=#0e8088;" vertex="1" parent="2vQZAce-5nHGLV8ph5eL-1">
          <mxGeometry x="520.0000000000001" y="1520" width="80" height="40" as="geometry" />
        </mxCell>
        <mxCell id="2vQZAce-5nHGLV8ph5eL-67" style="edgeStyle=orthogonalEdgeStyle;rounded=1;orthogonalLoop=1;jettySize=auto;html=1;exitX=1;exitY=0.5;exitDx=0;exitDy=0;entryX=0;entryY=0.5;entryDx=0;entryDy=0;dashed=1;dashPattern=1 2;" edge="1" parent="2vQZAce-5nHGLV8ph5eL-1" source="2vQZAce-5nHGLV8ph5eL-68" target="2vQZAce-5nHGLV8ph5eL-70">
          <mxGeometry relative="1" as="geometry" />
        </mxCell>
        <mxCell id="2vQZAce-5nHGLV8ph5eL-68" value="EntityShape&lt;br&gt;&quot;patient&quot;" style="ellipse;whiteSpace=wrap;html=1;fillColor=#b0e3e6;strokeColor=#0e8088;" vertex="1" parent="2vQZAce-5nHGLV8ph5eL-1">
          <mxGeometry x="640.0000000000001" y="1520" width="80" height="40" as="geometry" />
        </mxCell>
        <mxCell id="2vQZAce-5nHGLV8ph5eL-69" style="edgeStyle=orthogonalEdgeStyle;rounded=1;orthogonalLoop=1;jettySize=auto;html=1;exitX=1;exitY=0.5;exitDx=0;exitDy=0;entryX=0;entryY=0.5;entryDx=0;entryDy=0;dashed=1;dashPattern=1 2;" edge="1" parent="2vQZAce-5nHGLV8ph5eL-1" source="2vQZAce-5nHGLV8ph5eL-70" target="2vQZAce-5nHGLV8ph5eL-71">
          <mxGeometry relative="1" as="geometry" />
        </mxCell>
        <mxCell id="2vQZAce-5nHGLV8ph5eL-70" value="TupleOf" style="ellipse;whiteSpace=wrap;html=1;fillColor=#b0e3e6;strokeColor=#0e8088;" vertex="1" parent="2vQZAce-5nHGLV8ph5eL-1">
          <mxGeometry x="760.0000000000001" y="1520" width="80" height="40" as="geometry" />
        </mxCell>
        <mxCell id="2vQZAce-5nHGLV8ph5eL-71" value="Int32" style="ellipse;whiteSpace=wrap;html=1;fillColor=#f5f5f5;strokeColor=#666666;fontColor=#333333;" vertex="1" parent="2vQZAce-5nHGLV8ph5eL-1">
          <mxGeometry x="880.0000000000001" y="1520" width="80" height="40" as="geometry" />
        </mxCell>
      </root>
    </mxGraphModel>
  </diagram>
</mxfile>
